{"title":"a`ala gothaty 2013 Arabic Dvd x264 AC3 - alrmothe","uid":8585163,"size":2215333442,"categoryP":"video","categoryS":"movies","magnet":"?xt=urn:btih:86f719a1a70e5aeb84fca9a1905987796f52891a&amp;dn=a%60ala+gothaty+2013+Arabic+Dvd+x264+AC3+-+alrmothe&amp;tr=udp%3A%2F%2Ftracker.openbittorrent.com%3A80&amp;tr=udp%3A%2F%2Fopen.demonii.com%3A1337&amp;tr=udp%3A%2F%2Ftracker.coppersurfer.tk%3A6969&amp;tr=udp%3A%2F%2Fexodus.desync.com%3A6969","seeders":2,"leechers":0,"uploader":".alrmothe","files":19,"time":1371510850,"description":"******************************************************\n\na`ala gothaty 2013 Arabic Dvd x264 AC3 - alrmothe\n\n******************************************************\n\nTitle:Over My Dead Body  \nYEAR: 2013\nGENRE : Drama        &lt;a href=&quot;\nhttp://www.elcinema.com/work/wk2018689/&quot; rel=&quot;nofollow&quot; target=&quot;_NEW&quot;&gt;\nhttp://www.elcinema.com/work/wk2018689/&lt;/a&gt;\nOverall bit rate: 2737 kbps\nFormat version: Version 4 / Version 2\nFile size:  2.04 GiB\nDuration:  1h 47mn\n\nSub:Arabic,English,French\n\nThe same subtitle format used on DVDs\n\n\nsample:Yes\n\nChapters:Yes\n******************************************************\n\nVideo\nFormat: Matroska\nFormat : AVC \nFormat/Info : Advanced Video Codec \nFormat profile : &lt;a class=&quot;__cf_email__&quot; href=&quot;/cdn-cgi/l/email-protection&quot; data-cfemail=&quot;1c54757b745c5028322d&quot;&gt;[email&amp;#160;protected]&lt;/a&gt;&lt;script cf-hash='f9e31' type=&quot;text/javascript&quot;&gt;\n/* &lt;![CDATA[ */!function(){try{var t=&quot;currentScript&quot;in document?document.currentScript:function(){for(var t=document.getElementsByTagName(&quot;script&quot;),e=t.length;e--;)if(t[e].getAttribute(&quot;cf-hash&quot;))return t[e]}();if(t&amp;&amp;t.previousSibling){var e,r,n,i,c=t.previousSibling,a=c.getAttribute(&quot;data-cfemail&quot;);if(a){for(e=&quot;&quot;,r=parseInt(a.substr(0,2),16),n=2;a.length-n;n+=2)i=parseInt(a.substr(n,2),16)^r,e+=String.fromCharCode(i);e=document.createTextNode(e),c.parentNode.replaceChild(e,c)}}}catch(u){}}();/* ]]&gt; */&lt;/script&gt; \nFormat settings, CABAC : Yes \nFormat settings, ReFrames : 4 frames  \nCodec ID : V_MPEG4/ISO/AVC  \nBit rate : 2485 kbps \nWidth : 718 pixels \nHeight : 400 pixels \nFrame rate : 25 fps \nColor space : YUV \nChroma subsampling : 4:2:0 \nBit depth : 8 bits \nScan type : Progressive \nBits/(Pixel*Frame) : 0.346 \nStream size: 1.84 GiB \n\n\nAudio \nFormat: Ac3\nBit rate :224 Kbps\nChannel(s) : 2 channels\nChannel positions:Front: L R\nSampling rate: 48.0 KHz\nBit depth: 16 bits\nCompression mode: Lossy\nStream size: 171 MiB\nLanguage : Arabic\n\n\n******************************************************\n","torrent":{"xt":"urn:btih:86f719a1a70e5aeb84fca9a1905987796f52891a","amp;dn":"a%60ala+gothaty+2013+Arabic+Dvd+x264+AC3+-+alrmothe","amp;tr":["udp%3A%2F%2Ftracker.openbittorrent.com%3A80","udp%3A%2F%2Fopen.demonii.com%3A1337","udp%3A%2F%2Ftracker.coppersurfer.tk%3A6969","udp%3A%2F%2Fexodus.desync.com%3A6969"],"infoHash":"86f719a1a70e5aeb84fca9a1905987796f52891a","infoHashBuffer":{"type":"Buffer","data":[134,247,25,161,167,14,90,235,132,252,169,161,144,89,135,121,111,82,137,26]},"announce":[],"urlList":[]}}